<mxfile host="Electron" modified="2024-04-21T15:07:20.349Z" agent="Mozilla/5.0 (Windows NT 10.0; Win64; x64) AppleWebKit/537.36 (KHTML, like Gecko) draw.io/24.1.0 Chrome/120.0.6099.109 Electron/28.1.0 Safari/537.36" etag="Y-52JZMa6b5bFqzsuK3N" version="24.1.0" type="device">
  <diagram name="Sayfa -1" id="7vqvPp7hm3dJaUFvC1q-">
    <mxGraphModel dx="1843" dy="887" grid="1" gridSize="10" guides="1" tooltips="1" connect="1" arrows="1" fold="1" page="1" pageScale="1" pageWidth="2339" pageHeight="3300" math="0" shadow="0">
      <root>
        <mxCell id="0" />
        <mxCell id="1" parent="0" />
        <mxCell id="dVMEjjhrhshQO-0TecnS-15" style="edgeStyle=orthogonalEdgeStyle;rounded=0;orthogonalLoop=1;jettySize=auto;html=1;exitX=0;exitY=0.5;exitDx=0;exitDy=0;entryX=0.5;entryY=0;entryDx=0;entryDy=0;fontSize=22;" parent="1" source="X-Xxfgq0mggH7Q_KRZmd-1" target="X-Xxfgq0mggH7Q_KRZmd-2" edge="1">
          <mxGeometry relative="1" as="geometry" />
        </mxCell>
        <mxCell id="dVMEjjhrhshQO-0TecnS-16" style="edgeStyle=orthogonalEdgeStyle;rounded=0;orthogonalLoop=1;jettySize=auto;html=1;exitX=0;exitY=1;exitDx=0;exitDy=0;fontSize=22;" parent="1" source="X-Xxfgq0mggH7Q_KRZmd-1" target="X-Xxfgq0mggH7Q_KRZmd-3" edge="1">
          <mxGeometry relative="1" as="geometry">
            <mxPoint x="560" y="290.66666666666674" as="targetPoint" />
            <Array as="points">
              <mxPoint x="545" y="290" />
            </Array>
          </mxGeometry>
        </mxCell>
        <mxCell id="dVMEjjhrhshQO-0TecnS-20" style="edgeStyle=orthogonalEdgeStyle;rounded=0;orthogonalLoop=1;jettySize=auto;html=1;exitX=1;exitY=0.5;exitDx=0;exitDy=0;entryX=0.5;entryY=0;entryDx=0;entryDy=0;fontSize=22;" parent="1" source="X-Xxfgq0mggH7Q_KRZmd-1" target="X-Xxfgq0mggH7Q_KRZmd-47" edge="1">
          <mxGeometry relative="1" as="geometry" />
        </mxCell>
        <mxCell id="dVMEjjhrhshQO-0TecnS-21" style="edgeStyle=orthogonalEdgeStyle;rounded=0;orthogonalLoop=1;jettySize=auto;html=1;exitX=1;exitY=1;exitDx=0;exitDy=0;entryX=0.417;entryY=-0.024;entryDx=0;entryDy=0;entryPerimeter=0;fontSize=22;" parent="1" source="X-Xxfgq0mggH7Q_KRZmd-1" target="X-Xxfgq0mggH7Q_KRZmd-4" edge="1">
          <mxGeometry relative="1" as="geometry">
            <Array as="points">
              <mxPoint x="923" y="290" />
            </Array>
          </mxGeometry>
        </mxCell>
        <mxCell id="X-Xxfgq0mggH7Q_KRZmd-1" value="NeYemek?" style="rounded=1;whiteSpace=wrap;html=1;labelBackgroundColor=none;fillColor=#f8cecc;strokeColor=#b85450;fontSize=22;fontStyle=0;" parent="1" vertex="1">
          <mxGeometry x="620" y="210" width="220" height="80" as="geometry" />
        </mxCell>
        <mxCell id="dVMEjjhrhshQO-0TecnS-35" style="edgeStyle=orthogonalEdgeStyle;rounded=0;orthogonalLoop=1;jettySize=auto;html=1;fontSize=22;" parent="1" source="X-Xxfgq0mggH7Q_KRZmd-2" target="X-Xxfgq0mggH7Q_KRZmd-5" edge="1">
          <mxGeometry relative="1" as="geometry">
            <mxPoint x="40" y="450" as="targetPoint" />
            <Array as="points">
              <mxPoint x="40" y="360" />
              <mxPoint x="40" y="440" />
            </Array>
          </mxGeometry>
        </mxCell>
        <mxCell id="dVMEjjhrhshQO-0TecnS-36" style="edgeStyle=orthogonalEdgeStyle;rounded=0;orthogonalLoop=1;jettySize=auto;html=1;exitX=0;exitY=0.75;exitDx=0;exitDy=0;entryX=0;entryY=0.5;entryDx=0;entryDy=0;fontSize=22;" parent="1" source="X-Xxfgq0mggH7Q_KRZmd-2" target="X-Xxfgq0mggH7Q_KRZmd-13" edge="1">
          <mxGeometry relative="1" as="geometry">
            <Array as="points">
              <mxPoint x="70" y="360" />
              <mxPoint x="40" y="360" />
              <mxPoint x="40" y="650" />
            </Array>
          </mxGeometry>
        </mxCell>
        <mxCell id="dVMEjjhrhshQO-0TecnS-37" style="edgeStyle=orthogonalEdgeStyle;rounded=0;orthogonalLoop=1;jettySize=auto;html=1;exitX=0;exitY=0.5;exitDx=0;exitDy=0;entryX=0;entryY=0.5;entryDx=0;entryDy=0;fontSize=22;" parent="1" source="X-Xxfgq0mggH7Q_KRZmd-2" target="X-Xxfgq0mggH7Q_KRZmd-17" edge="1">
          <mxGeometry relative="1" as="geometry">
            <Array as="points">
              <mxPoint x="40" y="360" />
              <mxPoint x="40" y="860" />
            </Array>
          </mxGeometry>
        </mxCell>
        <mxCell id="X-Xxfgq0mggH7Q_KRZmd-2" value="1.Proje Başlangıcı ve Planlama" style="rounded=1;whiteSpace=wrap;html=1;labelBackgroundColor=none;fillColor=#dae8fc;strokeColor=#6c8ebf;fontStyle=0" parent="1" vertex="1">
          <mxGeometry x="70" y="330" width="120" height="60" as="geometry" />
        </mxCell>
        <mxCell id="dVMEjjhrhshQO-0TecnS-38" style="edgeStyle=orthogonalEdgeStyle;rounded=0;orthogonalLoop=1;jettySize=auto;html=1;exitX=0;exitY=0.5;exitDx=0;exitDy=0;entryX=0;entryY=0.5;entryDx=0;entryDy=0;fontSize=22;" parent="1" source="X-Xxfgq0mggH7Q_KRZmd-3" target="X-Xxfgq0mggH7Q_KRZmd-22" edge="1">
          <mxGeometry relative="1" as="geometry" />
        </mxCell>
        <mxCell id="dVMEjjhrhshQO-0TecnS-39" style="edgeStyle=orthogonalEdgeStyle;rounded=0;orthogonalLoop=1;jettySize=auto;html=1;exitX=0;exitY=0.5;exitDx=0;exitDy=0;entryX=0;entryY=0.5;entryDx=0;entryDy=0;fontSize=22;" parent="1" source="X-Xxfgq0mggH7Q_KRZmd-3" target="X-Xxfgq0mggH7Q_KRZmd-23" edge="1">
          <mxGeometry relative="1" as="geometry" />
        </mxCell>
        <mxCell id="dVMEjjhrhshQO-0TecnS-40" style="edgeStyle=orthogonalEdgeStyle;rounded=0;orthogonalLoop=1;jettySize=auto;html=1;exitX=0;exitY=0.5;exitDx=0;exitDy=0;entryX=0;entryY=0.5;entryDx=0;entryDy=0;fontSize=22;" parent="1" source="X-Xxfgq0mggH7Q_KRZmd-3" target="X-Xxfgq0mggH7Q_KRZmd-24" edge="1">
          <mxGeometry relative="1" as="geometry" />
        </mxCell>
        <mxCell id="X-Xxfgq0mggH7Q_KRZmd-3" value="2. Geliştirme ve Uygulama" style="rounded=1;whiteSpace=wrap;html=1;labelBackgroundColor=none;fillColor=#dae8fc;strokeColor=#6c8ebf;fontStyle=0" parent="1" vertex="1">
          <mxGeometry x="470" y="330" width="150" height="60" as="geometry" />
        </mxCell>
        <mxCell id="dVMEjjhrhshQO-0TecnS-41" style="edgeStyle=orthogonalEdgeStyle;rounded=0;orthogonalLoop=1;jettySize=auto;html=1;exitX=0;exitY=0.5;exitDx=0;exitDy=0;entryX=0;entryY=0.5;entryDx=0;entryDy=0;fontSize=22;" parent="1" source="X-Xxfgq0mggH7Q_KRZmd-4" target="X-Xxfgq0mggH7Q_KRZmd-37" edge="1">
          <mxGeometry relative="1" as="geometry" />
        </mxCell>
        <mxCell id="dVMEjjhrhshQO-0TecnS-42" style="edgeStyle=orthogonalEdgeStyle;rounded=0;orthogonalLoop=1;jettySize=auto;html=1;exitX=0;exitY=0.5;exitDx=0;exitDy=0;entryX=0;entryY=0.5;entryDx=0;entryDy=0;fontSize=22;" parent="1" source="X-Xxfgq0mggH7Q_KRZmd-4" target="X-Xxfgq0mggH7Q_KRZmd-35" edge="1">
          <mxGeometry relative="1" as="geometry" />
        </mxCell>
        <mxCell id="dVMEjjhrhshQO-0TecnS-43" style="edgeStyle=orthogonalEdgeStyle;rounded=0;orthogonalLoop=1;jettySize=auto;html=1;exitX=0;exitY=0.5;exitDx=0;exitDy=0;entryX=0;entryY=0.5;entryDx=0;entryDy=0;fontSize=22;" parent="1" source="X-Xxfgq0mggH7Q_KRZmd-4" target="X-Xxfgq0mggH7Q_KRZmd-36" edge="1">
          <mxGeometry relative="1" as="geometry" />
        </mxCell>
        <mxCell id="X-Xxfgq0mggH7Q_KRZmd-4" value="3. Test ve Doğrulama&amp;nbsp;" style="rounded=1;whiteSpace=wrap;html=1;labelBackgroundColor=none;fillColor=#dae8fc;strokeColor=#6c8ebf;fontStyle=0" parent="1" vertex="1">
          <mxGeometry x="860" y="330" width="150" height="60" as="geometry" />
        </mxCell>
        <mxCell id="dVMEjjhrhshQO-0TecnS-48" style="edgeStyle=orthogonalEdgeStyle;rounded=0;orthogonalLoop=1;jettySize=auto;html=1;exitX=0;exitY=1;exitDx=0;exitDy=0;entryX=0;entryY=0.5;entryDx=0;entryDy=0;fontSize=22;" parent="1" source="X-Xxfgq0mggH7Q_KRZmd-5" target="X-Xxfgq0mggH7Q_KRZmd-6" edge="1">
          <mxGeometry relative="1" as="geometry" />
        </mxCell>
        <mxCell id="dVMEjjhrhshQO-0TecnS-49" style="edgeStyle=orthogonalEdgeStyle;rounded=0;orthogonalLoop=1;jettySize=auto;html=1;exitX=0;exitY=1;exitDx=0;exitDy=0;entryX=0;entryY=0.5;entryDx=0;entryDy=0;fontSize=22;" parent="1" source="X-Xxfgq0mggH7Q_KRZmd-5" target="X-Xxfgq0mggH7Q_KRZmd-11" edge="1">
          <mxGeometry relative="1" as="geometry" />
        </mxCell>
        <mxCell id="dVMEjjhrhshQO-0TecnS-50" style="edgeStyle=orthogonalEdgeStyle;rounded=0;orthogonalLoop=1;jettySize=auto;html=1;exitX=0;exitY=1;exitDx=0;exitDy=0;entryX=0;entryY=0.5;entryDx=0;entryDy=0;fontSize=22;" parent="1" source="X-Xxfgq0mggH7Q_KRZmd-5" target="X-Xxfgq0mggH7Q_KRZmd-12" edge="1">
          <mxGeometry relative="1" as="geometry" />
        </mxCell>
        <mxCell id="X-Xxfgq0mggH7Q_KRZmd-5" value="1.1 Proje Hedeflerinin Belirlenmesi" style="rounded=1;whiteSpace=wrap;html=1;labelBackgroundColor=none;fillColor=#d5e8d4;strokeColor=#82b366;" parent="1" vertex="1">
          <mxGeometry x="80" y="420" width="160" height="40" as="geometry" />
        </mxCell>
        <mxCell id="X-Xxfgq0mggH7Q_KRZmd-6" value="1.1.1 Proje Amacının Tanımlanması" style="rounded=1;whiteSpace=wrap;html=1;labelBackgroundColor=none;fillColor=#f9f7ed;strokeColor=#36393d;" parent="1" vertex="1">
          <mxGeometry x="115" y="470" width="180" height="40" as="geometry" />
        </mxCell>
        <mxCell id="X-Xxfgq0mggH7Q_KRZmd-11" value="1.1.2  Hedef Kitle ve İhtiyaçların Belirlenmesi" style="rounded=1;whiteSpace=wrap;html=1;labelBackgroundColor=none;fillColor=#f9f7ed;strokeColor=#36393d;" parent="1" vertex="1">
          <mxGeometry x="115" y="520" width="180" height="40" as="geometry" />
        </mxCell>
        <mxCell id="X-Xxfgq0mggH7Q_KRZmd-12" value="1.1.3 Beklentilerin ve Kısıtlamaların Değerlendirilmesi" style="rounded=1;whiteSpace=wrap;html=1;labelBackgroundColor=none;fillColor=#f9f7ed;strokeColor=#36393d;" parent="1" vertex="1">
          <mxGeometry x="115" y="570" width="180" height="40" as="geometry" />
        </mxCell>
        <mxCell id="dVMEjjhrhshQO-0TecnS-51" style="edgeStyle=orthogonalEdgeStyle;rounded=0;orthogonalLoop=1;jettySize=auto;html=1;exitX=0;exitY=1;exitDx=0;exitDy=0;entryX=0;entryY=0.5;entryDx=0;entryDy=0;fontSize=22;" parent="1" source="X-Xxfgq0mggH7Q_KRZmd-13" target="X-Xxfgq0mggH7Q_KRZmd-14" edge="1">
          <mxGeometry relative="1" as="geometry" />
        </mxCell>
        <mxCell id="dVMEjjhrhshQO-0TecnS-52" style="edgeStyle=orthogonalEdgeStyle;rounded=0;orthogonalLoop=1;jettySize=auto;html=1;exitX=0;exitY=1;exitDx=0;exitDy=0;entryX=0;entryY=0.5;entryDx=0;entryDy=0;fontSize=22;" parent="1" source="X-Xxfgq0mggH7Q_KRZmd-13" target="X-Xxfgq0mggH7Q_KRZmd-15" edge="1">
          <mxGeometry relative="1" as="geometry" />
        </mxCell>
        <mxCell id="dVMEjjhrhshQO-0TecnS-53" style="edgeStyle=orthogonalEdgeStyle;rounded=0;orthogonalLoop=1;jettySize=auto;html=1;exitX=0;exitY=1;exitDx=0;exitDy=0;entryX=0;entryY=0.5;entryDx=0;entryDy=0;fontSize=22;" parent="1" source="X-Xxfgq0mggH7Q_KRZmd-13" target="X-Xxfgq0mggH7Q_KRZmd-16" edge="1">
          <mxGeometry relative="1" as="geometry" />
        </mxCell>
        <mxCell id="X-Xxfgq0mggH7Q_KRZmd-13" value="1.2 Pazar Araştırması ve Rekabet Analizi" style="rounded=1;whiteSpace=wrap;html=1;labelBackgroundColor=none;fillColor=#d5e8d4;strokeColor=#82b366;" parent="1" vertex="1">
          <mxGeometry x="75" y="630" width="170" height="40" as="geometry" />
        </mxCell>
        <mxCell id="X-Xxfgq0mggH7Q_KRZmd-14" value="1.2.1 Pazar Trendlerinin İncelenmesi" style="rounded=1;whiteSpace=wrap;html=1;labelBackgroundColor=none;fillColor=#f9f7ed;strokeColor=#36393d;" parent="1" vertex="1">
          <mxGeometry x="115" y="680" width="180" height="40" as="geometry" />
        </mxCell>
        <mxCell id="X-Xxfgq0mggH7Q_KRZmd-15" value="1.2.2 Rakip Uygulamaların Analizi" style="rounded=1;whiteSpace=wrap;html=1;labelBackgroundColor=none;fillColor=#f9f7ed;strokeColor=#36393d;" parent="1" vertex="1">
          <mxGeometry x="115" y="730" width="180" height="40" as="geometry" />
        </mxCell>
        <mxCell id="X-Xxfgq0mggH7Q_KRZmd-16" value="1.2.3 Swot Analizinin Yapılması" style="rounded=1;whiteSpace=wrap;html=1;labelBackgroundColor=none;fillColor=#f9f7ed;strokeColor=#36393d;" parent="1" vertex="1">
          <mxGeometry x="115" y="785" width="180" height="40" as="geometry" />
        </mxCell>
        <mxCell id="dVMEjjhrhshQO-0TecnS-54" style="edgeStyle=orthogonalEdgeStyle;rounded=0;orthogonalLoop=1;jettySize=auto;html=1;exitX=0;exitY=1;exitDx=0;exitDy=0;entryX=0;entryY=0.5;entryDx=0;entryDy=0;fontSize=22;" parent="1" source="X-Xxfgq0mggH7Q_KRZmd-17" target="X-Xxfgq0mggH7Q_KRZmd-18" edge="1">
          <mxGeometry relative="1" as="geometry" />
        </mxCell>
        <mxCell id="dVMEjjhrhshQO-0TecnS-55" style="edgeStyle=orthogonalEdgeStyle;rounded=0;orthogonalLoop=1;jettySize=auto;html=1;exitX=0;exitY=1;exitDx=0;exitDy=0;entryX=0;entryY=0.5;entryDx=0;entryDy=0;fontSize=22;" parent="1" source="X-Xxfgq0mggH7Q_KRZmd-17" target="X-Xxfgq0mggH7Q_KRZmd-19" edge="1">
          <mxGeometry relative="1" as="geometry" />
        </mxCell>
        <mxCell id="dVMEjjhrhshQO-0TecnS-56" style="edgeStyle=orthogonalEdgeStyle;rounded=0;orthogonalLoop=1;jettySize=auto;html=1;exitX=0;exitY=1;exitDx=0;exitDy=0;entryX=0;entryY=0.5;entryDx=0;entryDy=0;fontSize=22;" parent="1" source="X-Xxfgq0mggH7Q_KRZmd-17" target="X-Xxfgq0mggH7Q_KRZmd-20" edge="1">
          <mxGeometry relative="1" as="geometry" />
        </mxCell>
        <mxCell id="X-Xxfgq0mggH7Q_KRZmd-17" value="1.3 Kaynakların Tahsisi ve Bütçenin Belirlenmesi" style="rounded=1;whiteSpace=wrap;html=1;labelBackgroundColor=none;fillColor=#d5e8d4;strokeColor=#82b366;" parent="1" vertex="1">
          <mxGeometry x="75" y="840" width="170" height="40" as="geometry" />
        </mxCell>
        <mxCell id="X-Xxfgq0mggH7Q_KRZmd-18" value="1.3.1 İnsan Kaynaklarının Belirlenmesi ve Rollerin Tanımlanması&amp;nbsp;" style="rounded=1;whiteSpace=wrap;html=1;labelBackgroundColor=none;fillColor=#f9f7ed;strokeColor=#36393d;" parent="1" vertex="1">
          <mxGeometry x="115" y="890" width="180" height="50" as="geometry" />
        </mxCell>
        <mxCell id="X-Xxfgq0mggH7Q_KRZmd-19" value="1.3.2 Gerekli Donanım ve Yazılımın Belirlenmesi" style="rounded=1;whiteSpace=wrap;html=1;labelBackgroundColor=none;fillColor=#f9f7ed;strokeColor=#36393d;" parent="1" vertex="1">
          <mxGeometry x="115" y="950" width="180" height="40" as="geometry" />
        </mxCell>
        <mxCell id="X-Xxfgq0mggH7Q_KRZmd-20" value="1.3.3 Bütçe ve Mali Kaynakların Planlanması" style="rounded=1;whiteSpace=wrap;html=1;labelBackgroundColor=none;fillColor=#f9f7ed;strokeColor=#36393d;" parent="1" vertex="1">
          <mxGeometry x="115" y="1000" width="180" height="40" as="geometry" />
        </mxCell>
        <mxCell id="dVMEjjhrhshQO-0TecnS-57" style="edgeStyle=orthogonalEdgeStyle;rounded=0;orthogonalLoop=1;jettySize=auto;html=1;exitX=0;exitY=1;exitDx=0;exitDy=0;entryX=0;entryY=0.75;entryDx=0;entryDy=0;fontSize=22;" parent="1" source="X-Xxfgq0mggH7Q_KRZmd-22" target="X-Xxfgq0mggH7Q_KRZmd-25" edge="1">
          <mxGeometry relative="1" as="geometry" />
        </mxCell>
        <mxCell id="dVMEjjhrhshQO-0TecnS-58" style="edgeStyle=orthogonalEdgeStyle;rounded=0;orthogonalLoop=1;jettySize=auto;html=1;exitX=0;exitY=1;exitDx=0;exitDy=0;entryX=0;entryY=0.5;entryDx=0;entryDy=0;fontSize=22;" parent="1" source="X-Xxfgq0mggH7Q_KRZmd-22" target="X-Xxfgq0mggH7Q_KRZmd-26" edge="1">
          <mxGeometry relative="1" as="geometry" />
        </mxCell>
        <mxCell id="dVMEjjhrhshQO-0TecnS-59" style="edgeStyle=orthogonalEdgeStyle;rounded=0;orthogonalLoop=1;jettySize=auto;html=1;exitX=0;exitY=1;exitDx=0;exitDy=0;entryX=0;entryY=0.5;entryDx=0;entryDy=0;fontSize=22;" parent="1" source="X-Xxfgq0mggH7Q_KRZmd-22" target="X-Xxfgq0mggH7Q_KRZmd-27" edge="1">
          <mxGeometry relative="1" as="geometry" />
        </mxCell>
        <mxCell id="X-Xxfgq0mggH7Q_KRZmd-22" value="2.1 Yazılım ve Donanım Altyapısının Kurulması" style="rounded=1;whiteSpace=wrap;html=1;labelBackgroundColor=none;fillColor=#d5e8d4;strokeColor=#82b366;" parent="1" vertex="1">
          <mxGeometry x="490" y="410" width="170" height="40" as="geometry" />
        </mxCell>
        <mxCell id="dVMEjjhrhshQO-0TecnS-63" style="edgeStyle=orthogonalEdgeStyle;rounded=0;orthogonalLoop=1;jettySize=auto;html=1;exitX=0;exitY=1;exitDx=0;exitDy=0;entryX=0;entryY=0.75;entryDx=0;entryDy=0;fontSize=22;" parent="1" source="X-Xxfgq0mggH7Q_KRZmd-23" target="X-Xxfgq0mggH7Q_KRZmd-28" edge="1">
          <mxGeometry relative="1" as="geometry" />
        </mxCell>
        <mxCell id="dVMEjjhrhshQO-0TecnS-64" style="edgeStyle=orthogonalEdgeStyle;rounded=0;orthogonalLoop=1;jettySize=auto;html=1;exitX=0;exitY=1;exitDx=0;exitDy=0;entryX=0;entryY=0.5;entryDx=0;entryDy=0;fontSize=22;" parent="1" source="X-Xxfgq0mggH7Q_KRZmd-23" target="X-Xxfgq0mggH7Q_KRZmd-29" edge="1">
          <mxGeometry relative="1" as="geometry" />
        </mxCell>
        <mxCell id="dVMEjjhrhshQO-0TecnS-65" style="edgeStyle=orthogonalEdgeStyle;rounded=0;orthogonalLoop=1;jettySize=auto;html=1;exitX=0;exitY=1;exitDx=0;exitDy=0;entryX=0;entryY=0.5;entryDx=0;entryDy=0;fontSize=22;" parent="1" source="X-Xxfgq0mggH7Q_KRZmd-23" target="X-Xxfgq0mggH7Q_KRZmd-30" edge="1">
          <mxGeometry relative="1" as="geometry" />
        </mxCell>
        <mxCell id="X-Xxfgq0mggH7Q_KRZmd-23" value="2.2 Uygulama Arayüzünün Tasarımı&amp;nbsp;" style="rounded=1;whiteSpace=wrap;html=1;labelBackgroundColor=none;fillColor=#d5e8d4;strokeColor=#82b366;" parent="1" vertex="1">
          <mxGeometry x="490" y="620" width="170" height="40" as="geometry" />
        </mxCell>
        <mxCell id="dVMEjjhrhshQO-0TecnS-66" style="edgeStyle=orthogonalEdgeStyle;rounded=0;orthogonalLoop=1;jettySize=auto;html=1;exitX=0;exitY=1;exitDx=0;exitDy=0;entryX=0;entryY=0.75;entryDx=0;entryDy=0;fontSize=22;" parent="1" source="X-Xxfgq0mggH7Q_KRZmd-24" target="X-Xxfgq0mggH7Q_KRZmd-31" edge="1">
          <mxGeometry relative="1" as="geometry" />
        </mxCell>
        <mxCell id="dVMEjjhrhshQO-0TecnS-67" style="edgeStyle=orthogonalEdgeStyle;rounded=0;orthogonalLoop=1;jettySize=auto;html=1;exitX=0;exitY=1;exitDx=0;exitDy=0;entryX=0;entryY=0.5;entryDx=0;entryDy=0;fontSize=22;" parent="1" source="X-Xxfgq0mggH7Q_KRZmd-24" target="X-Xxfgq0mggH7Q_KRZmd-32" edge="1">
          <mxGeometry relative="1" as="geometry" />
        </mxCell>
        <mxCell id="dVMEjjhrhshQO-0TecnS-68" style="edgeStyle=orthogonalEdgeStyle;rounded=0;orthogonalLoop=1;jettySize=auto;html=1;exitX=0;exitY=1;exitDx=0;exitDy=0;entryX=0;entryY=0.5;entryDx=0;entryDy=0;fontSize=22;" parent="1" source="X-Xxfgq0mggH7Q_KRZmd-24" target="X-Xxfgq0mggH7Q_KRZmd-33" edge="1">
          <mxGeometry relative="1" as="geometry" />
        </mxCell>
        <mxCell id="X-Xxfgq0mggH7Q_KRZmd-24" value="2.3 Yapay Zeka Algoritmasının Geliştirilmesi" style="rounded=1;whiteSpace=wrap;html=1;labelBackgroundColor=none;fillColor=#d5e8d4;strokeColor=#82b366;" parent="1" vertex="1">
          <mxGeometry x="490" y="830" width="170" height="40" as="geometry" />
        </mxCell>
        <mxCell id="X-Xxfgq0mggH7Q_KRZmd-25" value="2.1.1 Gerekli Donanımın Temini ve Kurulumu&amp;nbsp;" style="rounded=1;whiteSpace=wrap;html=1;labelBackgroundColor=none;fillColor=#f9f7ed;strokeColor=#36393d;" parent="1" vertex="1">
          <mxGeometry x="510" y="460" width="180" height="40" as="geometry" />
        </mxCell>
        <mxCell id="X-Xxfgq0mggH7Q_KRZmd-26" value="2.1.2 Yazılım Geliştirme Ortamının Hazırlanması" style="rounded=1;whiteSpace=wrap;html=1;labelBackgroundColor=none;fillColor=#f9f7ed;strokeColor=#36393d;" parent="1" vertex="1">
          <mxGeometry x="510" y="510" width="180" height="40" as="geometry" />
        </mxCell>
        <mxCell id="X-Xxfgq0mggH7Q_KRZmd-27" value="2.1.3 Veritabanı Mimarisi ve Yapısı Tasarımı" style="rounded=1;whiteSpace=wrap;html=1;labelBackgroundColor=none;fillColor=#f9f7ed;strokeColor=#36393d;" parent="1" vertex="1">
          <mxGeometry x="510" y="560" width="180" height="40" as="geometry" />
        </mxCell>
        <mxCell id="X-Xxfgq0mggH7Q_KRZmd-28" value="2.2.1 Kullanıcı Arayüzü Tasarımı ve Prototip Oluşturma&amp;nbsp;" style="rounded=1;whiteSpace=wrap;html=1;labelBackgroundColor=none;fillColor=#f9f7ed;strokeColor=#36393d;" parent="1" vertex="1">
          <mxGeometry x="510" y="670" width="180" height="40" as="geometry" />
        </mxCell>
        <mxCell id="X-Xxfgq0mggH7Q_KRZmd-29" value="2.2.2 Arayüz İşlevselliğinin Belirlenmesi" style="rounded=1;whiteSpace=wrap;html=1;labelBackgroundColor=none;fillColor=#f9f7ed;strokeColor=#36393d;" parent="1" vertex="1">
          <mxGeometry x="510" y="720" width="180" height="40" as="geometry" />
        </mxCell>
        <mxCell id="X-Xxfgq0mggH7Q_KRZmd-30" value="2.2.3 Görsel ve Grafik Tasarımının Planlanması" style="rounded=1;whiteSpace=wrap;html=1;labelBackgroundColor=none;fillColor=#f9f7ed;strokeColor=#36393d;" parent="1" vertex="1">
          <mxGeometry x="510" y="770" width="180" height="40" as="geometry" />
        </mxCell>
        <mxCell id="X-Xxfgq0mggH7Q_KRZmd-31" value="2.3.1 Veri Toplama ve Temizleme Süreci" style="rounded=1;whiteSpace=wrap;html=1;labelBackgroundColor=none;fillColor=#f9f7ed;strokeColor=#36393d;" parent="1" vertex="1">
          <mxGeometry x="510" y="880" width="180" height="40" as="geometry" />
        </mxCell>
        <mxCell id="X-Xxfgq0mggH7Q_KRZmd-32" value="2.3.2 Algoritma Geliştirme ve Modelleme" style="rounded=1;whiteSpace=wrap;html=1;labelBackgroundColor=none;fillColor=#f9f7ed;strokeColor=#36393d;" parent="1" vertex="1">
          <mxGeometry x="510" y="930" width="180" height="40" as="geometry" />
        </mxCell>
        <mxCell id="X-Xxfgq0mggH7Q_KRZmd-33" value="2.3.3 Yapay Zeka Modelinin Eğitimi ve Doğrulanması&amp;nbsp;" style="rounded=1;whiteSpace=wrap;html=1;labelBackgroundColor=none;fillColor=#f9f7ed;strokeColor=#36393d;" parent="1" vertex="1">
          <mxGeometry x="510" y="980" width="180" height="40" as="geometry" />
        </mxCell>
        <mxCell id="dVMEjjhrhshQO-0TecnS-72" style="edgeStyle=orthogonalEdgeStyle;rounded=0;orthogonalLoop=1;jettySize=auto;html=1;exitX=0;exitY=1;exitDx=0;exitDy=0;entryX=0;entryY=0.75;entryDx=0;entryDy=0;fontSize=22;" parent="1" source="X-Xxfgq0mggH7Q_KRZmd-35" target="X-Xxfgq0mggH7Q_KRZmd-41" edge="1">
          <mxGeometry relative="1" as="geometry" />
        </mxCell>
        <mxCell id="dVMEjjhrhshQO-0TecnS-73" style="edgeStyle=orthogonalEdgeStyle;rounded=0;orthogonalLoop=1;jettySize=auto;html=1;exitX=0;exitY=1;exitDx=0;exitDy=0;entryX=0;entryY=0.5;entryDx=0;entryDy=0;fontSize=22;" parent="1" source="X-Xxfgq0mggH7Q_KRZmd-35" target="X-Xxfgq0mggH7Q_KRZmd-42" edge="1">
          <mxGeometry relative="1" as="geometry" />
        </mxCell>
        <mxCell id="dVMEjjhrhshQO-0TecnS-74" style="edgeStyle=orthogonalEdgeStyle;rounded=0;orthogonalLoop=1;jettySize=auto;html=1;exitX=0;exitY=1;exitDx=0;exitDy=0;entryX=0;entryY=0.5;entryDx=0;entryDy=0;fontSize=22;" parent="1" source="X-Xxfgq0mggH7Q_KRZmd-35" target="X-Xxfgq0mggH7Q_KRZmd-43" edge="1">
          <mxGeometry relative="1" as="geometry" />
        </mxCell>
        <mxCell id="X-Xxfgq0mggH7Q_KRZmd-35" value="3.2 Yapay Zeka Modelinin Doğrulanması" style="rounded=1;whiteSpace=wrap;html=1;labelBackgroundColor=none;fillColor=#d5e8d4;strokeColor=#82b366;" parent="1" vertex="1">
          <mxGeometry x="875" y="620" width="170" height="40" as="geometry" />
        </mxCell>
        <mxCell id="dVMEjjhrhshQO-0TecnS-75" style="edgeStyle=orthogonalEdgeStyle;rounded=0;orthogonalLoop=1;jettySize=auto;html=1;exitX=0;exitY=1;exitDx=0;exitDy=0;entryX=0;entryY=0.75;entryDx=0;entryDy=0;fontSize=22;" parent="1" source="X-Xxfgq0mggH7Q_KRZmd-36" target="X-Xxfgq0mggH7Q_KRZmd-44" edge="1">
          <mxGeometry relative="1" as="geometry" />
        </mxCell>
        <mxCell id="dVMEjjhrhshQO-0TecnS-76" style="edgeStyle=orthogonalEdgeStyle;rounded=0;orthogonalLoop=1;jettySize=auto;html=1;exitX=0;exitY=1;exitDx=0;exitDy=0;entryX=0;entryY=0.5;entryDx=0;entryDy=0;fontSize=22;" parent="1" source="X-Xxfgq0mggH7Q_KRZmd-36" target="X-Xxfgq0mggH7Q_KRZmd-45" edge="1">
          <mxGeometry relative="1" as="geometry" />
        </mxCell>
        <mxCell id="dVMEjjhrhshQO-0TecnS-77" style="edgeStyle=orthogonalEdgeStyle;rounded=0;orthogonalLoop=1;jettySize=auto;html=1;exitX=0;exitY=1;exitDx=0;exitDy=0;entryX=0;entryY=0.5;entryDx=0;entryDy=0;fontSize=22;" parent="1" source="X-Xxfgq0mggH7Q_KRZmd-36" target="dVMEjjhrhshQO-0TecnS-27" edge="1">
          <mxGeometry relative="1" as="geometry" />
        </mxCell>
        <mxCell id="X-Xxfgq0mggH7Q_KRZmd-36" value="3.3 Veri Güvenliği ve Kullanıcı Gizliliği Testleri" style="rounded=1;whiteSpace=wrap;html=1;labelBackgroundColor=none;fillColor=#d5e8d4;strokeColor=#82b366;" parent="1" vertex="1">
          <mxGeometry x="875" y="825" width="170" height="40" as="geometry" />
        </mxCell>
        <mxCell id="dVMEjjhrhshQO-0TecnS-69" style="edgeStyle=orthogonalEdgeStyle;rounded=0;orthogonalLoop=1;jettySize=auto;html=1;exitX=0;exitY=1;exitDx=0;exitDy=0;entryX=0;entryY=0.5;entryDx=0;entryDy=0;fontSize=22;" parent="1" source="X-Xxfgq0mggH7Q_KRZmd-37" target="X-Xxfgq0mggH7Q_KRZmd-38" edge="1">
          <mxGeometry relative="1" as="geometry" />
        </mxCell>
        <mxCell id="dVMEjjhrhshQO-0TecnS-70" style="edgeStyle=orthogonalEdgeStyle;rounded=0;orthogonalLoop=1;jettySize=auto;html=1;exitX=0;exitY=1;exitDx=0;exitDy=0;entryX=0;entryY=0.5;entryDx=0;entryDy=0;fontSize=22;" parent="1" source="X-Xxfgq0mggH7Q_KRZmd-37" target="X-Xxfgq0mggH7Q_KRZmd-39" edge="1">
          <mxGeometry relative="1" as="geometry" />
        </mxCell>
        <mxCell id="dVMEjjhrhshQO-0TecnS-71" style="edgeStyle=orthogonalEdgeStyle;rounded=0;orthogonalLoop=1;jettySize=auto;html=1;exitX=0;exitY=1;exitDx=0;exitDy=0;entryX=0;entryY=0.5;entryDx=0;entryDy=0;fontSize=22;" parent="1" source="X-Xxfgq0mggH7Q_KRZmd-37" target="X-Xxfgq0mggH7Q_KRZmd-40" edge="1">
          <mxGeometry relative="1" as="geometry" />
        </mxCell>
        <mxCell id="X-Xxfgq0mggH7Q_KRZmd-37" value="3.1 Yazılım ve Arayüz Testleri" style="rounded=1;whiteSpace=wrap;html=1;labelBackgroundColor=none;fillColor=#d5e8d4;strokeColor=#82b366;" parent="1" vertex="1">
          <mxGeometry x="870" y="410" width="170" height="40" as="geometry" />
        </mxCell>
        <mxCell id="X-Xxfgq0mggH7Q_KRZmd-38" value="3.1.1 Birim Testlerinin Yapılması" style="rounded=1;whiteSpace=wrap;html=1;labelBackgroundColor=none;fillColor=#f9f7ed;strokeColor=#36393d;" parent="1" vertex="1">
          <mxGeometry x="900" y="470" width="180" height="40" as="geometry" />
        </mxCell>
        <mxCell id="X-Xxfgq0mggH7Q_KRZmd-39" value="3.1.2 Entegrasyon Testlerinin Yapılması" style="rounded=1;whiteSpace=wrap;html=1;labelBackgroundColor=none;fillColor=#f9f7ed;strokeColor=#36393d;" parent="1" vertex="1">
          <mxGeometry x="900" y="520" width="180" height="40" as="geometry" />
        </mxCell>
        <mxCell id="X-Xxfgq0mggH7Q_KRZmd-40" value="3.1.3 Kullanıcı Deneyimi Testlerinin Uygulanması" style="rounded=1;whiteSpace=wrap;html=1;labelBackgroundColor=none;fillColor=#f9f7ed;strokeColor=#36393d;" parent="1" vertex="1">
          <mxGeometry x="900" y="570" width="180" height="40" as="geometry" />
        </mxCell>
        <mxCell id="X-Xxfgq0mggH7Q_KRZmd-41" value="3.2.1 Veri Doğrulama ve Kalibrasyon" style="rounded=1;whiteSpace=wrap;html=1;labelBackgroundColor=none;fillColor=#f9f7ed;strokeColor=#36393d;" parent="1" vertex="1">
          <mxGeometry x="900" y="670" width="180" height="40" as="geometry" />
        </mxCell>
        <mxCell id="X-Xxfgq0mggH7Q_KRZmd-42" value="3.2.2 Model Performansının Değerlendirilmesi" style="rounded=1;whiteSpace=wrap;html=1;labelBackgroundColor=none;fillColor=#f9f7ed;strokeColor=#36393d;" parent="1" vertex="1">
          <mxGeometry x="900" y="720" width="180" height="40" as="geometry" />
        </mxCell>
        <mxCell id="X-Xxfgq0mggH7Q_KRZmd-43" value="3.2.3 Geri Bildirimlerin Analizi ve Model İyileştirmeleri" style="rounded=1;whiteSpace=wrap;html=1;labelBackgroundColor=none;fillColor=#f9f7ed;strokeColor=#36393d;" parent="1" vertex="1">
          <mxGeometry x="900" y="770" width="180" height="40" as="geometry" />
        </mxCell>
        <mxCell id="X-Xxfgq0mggH7Q_KRZmd-44" value="3.3.1 Veri Güvenliği Protokollerinin Test Edilmesi" style="rounded=1;whiteSpace=wrap;html=1;labelBackgroundColor=none;fillColor=#f9f7ed;strokeColor=#36393d;" parent="1" vertex="1">
          <mxGeometry x="900" y="880" width="180" height="40" as="geometry" />
        </mxCell>
        <mxCell id="X-Xxfgq0mggH7Q_KRZmd-45" value="3.3.2 Kullanıcı Verilerinin Korunması ve Gizliliğin Sağlanması" style="rounded=1;whiteSpace=wrap;html=1;labelBackgroundColor=none;fillColor=#f9f7ed;strokeColor=#36393d;" parent="1" vertex="1">
          <mxGeometry x="900" y="930" width="180" height="50" as="geometry" />
        </mxCell>
        <mxCell id="dVMEjjhrhshQO-0TecnS-44" style="edgeStyle=orthogonalEdgeStyle;rounded=0;orthogonalLoop=1;jettySize=auto;html=1;exitX=0;exitY=0.5;exitDx=0;exitDy=0;entryX=0;entryY=0.5;entryDx=0;entryDy=0;fontSize=22;" parent="1" source="X-Xxfgq0mggH7Q_KRZmd-47" target="dVMEjjhrhshQO-0TecnS-1" edge="1">
          <mxGeometry relative="1" as="geometry" />
        </mxCell>
        <mxCell id="dVMEjjhrhshQO-0TecnS-45" style="edgeStyle=orthogonalEdgeStyle;rounded=0;orthogonalLoop=1;jettySize=auto;html=1;exitX=0;exitY=0.5;exitDx=0;exitDy=0;entryX=0;entryY=0.5;entryDx=0;entryDy=0;fontSize=22;" parent="1" source="X-Xxfgq0mggH7Q_KRZmd-47" target="dVMEjjhrhshQO-0TecnS-2" edge="1">
          <mxGeometry relative="1" as="geometry" />
        </mxCell>
        <mxCell id="dVMEjjhrhshQO-0TecnS-46" style="edgeStyle=orthogonalEdgeStyle;rounded=0;orthogonalLoop=1;jettySize=auto;html=1;exitX=0;exitY=0.5;exitDx=0;exitDy=0;entryX=0;entryY=0.5;entryDx=0;entryDy=0;fontSize=22;" parent="1" source="X-Xxfgq0mggH7Q_KRZmd-47" target="dVMEjjhrhshQO-0TecnS-3" edge="1">
          <mxGeometry relative="1" as="geometry" />
        </mxCell>
        <mxCell id="X-Xxfgq0mggH7Q_KRZmd-47" value="4. Dağıtım ve Uygulama&amp;nbsp;" style="rounded=1;whiteSpace=wrap;html=1;labelBackgroundColor=none;fillColor=#dae8fc;strokeColor=#6c8ebf;fontStyle=0" parent="1" vertex="1">
          <mxGeometry x="1170" y="330" width="150" height="60" as="geometry" />
        </mxCell>
        <mxCell id="dVMEjjhrhshQO-0TecnS-78" style="edgeStyle=orthogonalEdgeStyle;rounded=0;orthogonalLoop=1;jettySize=auto;html=1;exitX=0;exitY=1;exitDx=0;exitDy=0;entryX=0;entryY=0.5;entryDx=0;entryDy=0;fontSize=22;" parent="1" source="dVMEjjhrhshQO-0TecnS-1" target="dVMEjjhrhshQO-0TecnS-4" edge="1">
          <mxGeometry relative="1" as="geometry" />
        </mxCell>
        <mxCell id="dVMEjjhrhshQO-0TecnS-79" style="edgeStyle=orthogonalEdgeStyle;rounded=0;orthogonalLoop=1;jettySize=auto;html=1;exitX=0;exitY=1;exitDx=0;exitDy=0;entryX=0;entryY=0.5;entryDx=0;entryDy=0;fontSize=22;" parent="1" source="dVMEjjhrhshQO-0TecnS-1" target="dVMEjjhrhshQO-0TecnS-5" edge="1">
          <mxGeometry relative="1" as="geometry" />
        </mxCell>
        <mxCell id="dVMEjjhrhshQO-0TecnS-80" style="edgeStyle=orthogonalEdgeStyle;rounded=0;orthogonalLoop=1;jettySize=auto;html=1;exitX=0;exitY=1;exitDx=0;exitDy=0;entryX=0;entryY=0.5;entryDx=0;entryDy=0;fontSize=22;" parent="1" source="dVMEjjhrhshQO-0TecnS-1" target="dVMEjjhrhshQO-0TecnS-6" edge="1">
          <mxGeometry relative="1" as="geometry" />
        </mxCell>
        <mxCell id="dVMEjjhrhshQO-0TecnS-1" value="4.1 Beta Test Aşaması ve Geri Bildirimlerin Değerlendirilmesi" style="rounded=1;whiteSpace=wrap;html=1;labelBackgroundColor=none;fillColor=#d5e8d4;strokeColor=#82b366;" parent="1" vertex="1">
          <mxGeometry x="1200" y="410" width="170" height="40" as="geometry" />
        </mxCell>
        <mxCell id="dVMEjjhrhshQO-0TecnS-81" style="edgeStyle=orthogonalEdgeStyle;rounded=0;orthogonalLoop=1;jettySize=auto;html=1;exitX=0;exitY=1;exitDx=0;exitDy=0;entryX=0;entryY=0.75;entryDx=0;entryDy=0;fontSize=22;" parent="1" source="dVMEjjhrhshQO-0TecnS-2" target="dVMEjjhrhshQO-0TecnS-7" edge="1">
          <mxGeometry relative="1" as="geometry" />
        </mxCell>
        <mxCell id="dVMEjjhrhshQO-0TecnS-82" style="edgeStyle=orthogonalEdgeStyle;rounded=0;orthogonalLoop=1;jettySize=auto;html=1;exitX=0;exitY=1;exitDx=0;exitDy=0;entryX=0;entryY=0.5;entryDx=0;entryDy=0;fontSize=22;" parent="1" source="dVMEjjhrhshQO-0TecnS-2" target="dVMEjjhrhshQO-0TecnS-8" edge="1">
          <mxGeometry relative="1" as="geometry" />
        </mxCell>
        <mxCell id="dVMEjjhrhshQO-0TecnS-83" style="edgeStyle=orthogonalEdgeStyle;rounded=0;orthogonalLoop=1;jettySize=auto;html=1;exitX=0;exitY=1;exitDx=0;exitDy=0;entryX=0;entryY=0.5;entryDx=0;entryDy=0;fontSize=22;" parent="1" source="dVMEjjhrhshQO-0TecnS-2" target="dVMEjjhrhshQO-0TecnS-9" edge="1">
          <mxGeometry relative="1" as="geometry" />
        </mxCell>
        <mxCell id="dVMEjjhrhshQO-0TecnS-2" value="4.2 Uygulamanın Yayınlanması ve Pazarlama Stratejilerinin Uygulanması" style="rounded=1;whiteSpace=wrap;html=1;labelBackgroundColor=none;fillColor=#d5e8d4;strokeColor=#82b366;" parent="1" vertex="1">
          <mxGeometry x="1200" y="630" width="170" height="40" as="geometry" />
        </mxCell>
        <mxCell id="dVMEjjhrhshQO-0TecnS-84" style="edgeStyle=orthogonalEdgeStyle;rounded=0;orthogonalLoop=1;jettySize=auto;html=1;exitX=0;exitY=1;exitDx=0;exitDy=0;entryX=0;entryY=0.5;entryDx=0;entryDy=0;fontSize=22;" parent="1" source="dVMEjjhrhshQO-0TecnS-3" target="dVMEjjhrhshQO-0TecnS-10" edge="1">
          <mxGeometry relative="1" as="geometry" />
        </mxCell>
        <mxCell id="dVMEjjhrhshQO-0TecnS-85" style="edgeStyle=orthogonalEdgeStyle;rounded=0;orthogonalLoop=1;jettySize=auto;html=1;exitX=0;exitY=1;exitDx=0;exitDy=0;entryX=0;entryY=0.5;entryDx=0;entryDy=0;fontSize=22;" parent="1" source="dVMEjjhrhshQO-0TecnS-3" target="dVMEjjhrhshQO-0TecnS-11" edge="1">
          <mxGeometry relative="1" as="geometry" />
        </mxCell>
        <mxCell id="dVMEjjhrhshQO-0TecnS-86" style="edgeStyle=orthogonalEdgeStyle;rounded=0;orthogonalLoop=1;jettySize=auto;html=1;exitX=0;exitY=1;exitDx=0;exitDy=0;entryX=0;entryY=0.5;entryDx=0;entryDy=0;fontSize=22;" parent="1" source="dVMEjjhrhshQO-0TecnS-3" target="dVMEjjhrhshQO-0TecnS-12" edge="1">
          <mxGeometry relative="1" as="geometry" />
        </mxCell>
        <mxCell id="dVMEjjhrhshQO-0TecnS-3" value="4.3 Kullanıcı Desteği ve Sorun&amp;nbsp; Giderme Süreçlerinin Oluşturulması" style="rounded=1;whiteSpace=wrap;html=1;labelBackgroundColor=none;fillColor=#d5e8d4;strokeColor=#82b366;" parent="1" vertex="1">
          <mxGeometry x="1185" y="850" width="180" height="50" as="geometry" />
        </mxCell>
        <mxCell id="dVMEjjhrhshQO-0TecnS-4" value="4.1.1 Beta Test Katılımcılarının Seçimi ve Davet Edilmesi" style="rounded=1;whiteSpace=wrap;html=1;labelBackgroundColor=none;fillColor=#f9f7ed;strokeColor=#36393d;" parent="1" vertex="1">
          <mxGeometry x="1220" y="470" width="180" height="40" as="geometry" />
        </mxCell>
        <mxCell id="dVMEjjhrhshQO-0TecnS-5" value="4.1.2 Beta Test Sürümünün Dağıtımı ve Geri Bildirimlerin Toplanması" style="rounded=1;whiteSpace=wrap;html=1;labelBackgroundColor=none;fillColor=#f9f7ed;strokeColor=#36393d;" parent="1" vertex="1">
          <mxGeometry x="1220" y="520" width="190" height="50" as="geometry" />
        </mxCell>
        <mxCell id="dVMEjjhrhshQO-0TecnS-6" value="4.1.3 Geri Bildirimlerin Analizi ve Önceliklendirilmesi&amp;nbsp;" style="rounded=1;whiteSpace=wrap;html=1;labelBackgroundColor=none;fillColor=#f9f7ed;strokeColor=#36393d;" parent="1" vertex="1">
          <mxGeometry x="1220" y="580" width="180" height="40" as="geometry" />
        </mxCell>
        <mxCell id="dVMEjjhrhshQO-0TecnS-7" value="4.2.1 Uygulamanın Resmi Yayını ve Platformlara Gönderilmesi" style="rounded=1;whiteSpace=wrap;html=1;labelBackgroundColor=none;fillColor=#f9f7ed;strokeColor=#36393d;" parent="1" vertex="1">
          <mxGeometry x="1220" y="680" width="190" height="40" as="geometry" />
        </mxCell>
        <mxCell id="dVMEjjhrhshQO-0TecnS-8" value="4.2.2 Pazarlama ve Tanıtım Materyallerinin Hazırlanması ve Yayınlanması" style="rounded=1;whiteSpace=wrap;html=1;labelBackgroundColor=none;fillColor=#f9f7ed;strokeColor=#36393d;" parent="1" vertex="1">
          <mxGeometry x="1220" y="730" width="190" height="50" as="geometry" />
        </mxCell>
        <mxCell id="dVMEjjhrhshQO-0TecnS-9" value="4.2.3 Pazarlama Stratejilerinin Uygulanması ve Kullanıcı Tabanının Genişletilmesi" style="rounded=1;whiteSpace=wrap;html=1;labelBackgroundColor=none;fillColor=#f9f7ed;strokeColor=#36393d;" parent="1" vertex="1">
          <mxGeometry x="1220" y="795" width="190" height="45" as="geometry" />
        </mxCell>
        <mxCell id="dVMEjjhrhshQO-0TecnS-10" value="4.3.1 Kullanıcı Desteği Kanallarının Belirlenmesi ve Oluşturulması&amp;nbsp;" style="rounded=1;whiteSpace=wrap;html=1;labelBackgroundColor=none;fillColor=#f9f7ed;strokeColor=#36393d;" parent="1" vertex="1">
          <mxGeometry x="1220" y="910" width="180" height="50" as="geometry" />
        </mxCell>
        <mxCell id="dVMEjjhrhshQO-0TecnS-11" value="4.3.2 Sorun Bildirme ve Takip Süreçlerinin Oluşturulması" style="rounded=1;whiteSpace=wrap;html=1;labelBackgroundColor=none;fillColor=#f9f7ed;strokeColor=#36393d;" parent="1" vertex="1">
          <mxGeometry x="1220" y="970" width="180" height="40" as="geometry" />
        </mxCell>
        <mxCell id="dVMEjjhrhshQO-0TecnS-12" value="4.3.3 Kullanıcı Sorunlarının Çözülmesi ve Destek Süreçlerinin İyileştirilmesi" style="rounded=1;whiteSpace=wrap;html=1;labelBackgroundColor=none;fillColor=#f9f7ed;strokeColor=#36393d;" parent="1" vertex="1">
          <mxGeometry x="1220" y="1020" width="180" height="50" as="geometry" />
        </mxCell>
        <mxCell id="dVMEjjhrhshQO-0TecnS-27" value="3.3.3 Yasal ve Düzenleyici Uyumun Test Edilmesi" style="rounded=1;whiteSpace=wrap;html=1;labelBackgroundColor=none;fillColor=#f9f7ed;strokeColor=#36393d;" parent="1" vertex="1">
          <mxGeometry x="900" y="990" width="180" height="40" as="geometry" />
        </mxCell>
      </root>
    </mxGraphModel>
  </diagram>
</mxfile>
